<?xml version="1.0" encoding="UTF-8" standalone="no"?>
<!-- Created with Inkscape (http://www.inkscape.org/) -->

<svg
   width="512"
   height="512"
   viewBox="0 0 135.46666 135.46667"
   version="1.1"
   id="svg1"
   inkscape:version="1.3.2 (091e20e, 2023-11-25)"
   sodipodi:docname="icon.svg"
   xml:space="preserve"
   inkscape:export-filename="icon-raw.png"
   inkscape:export-xdpi="192"
   inkscape:export-ydpi="192"
   xmlns:inkscape="http://www.inkscape.org/namespaces/inkscape"
   xmlns:sodipodi="http://sodipodi.sourceforge.net/DTD/sodipodi-0.dtd"
   xmlns="http://www.w3.org/2000/svg"
   xmlns:svg="http://www.w3.org/2000/svg"><sodipodi:namedview
     id="namedview1"
     pagecolor="#505050"
     bordercolor="#eeeeee"
     borderopacity="1"
     inkscape:showpageshadow="0"
     inkscape:pageopacity="0"
     inkscape:pagecheckerboard="0"
     inkscape:deskcolor="#505050"
     inkscape:document-units="mm"
     inkscape:zoom="1.185102"
     inkscape:cx="218.96849"
     inkscape:cy="248.07991"
     inkscape:window-width="1512"
     inkscape:window-height="851"
     inkscape:window-x="0"
     inkscape:window-y="38"
     inkscape:window-maximized="0"
     inkscape:current-layer="layer1" /><defs
     id="defs1" /><g
     inkscape:label="Layer 1"
     inkscape:groupmode="layer"
     id="layer1"><rect
       style="fill:#000000;stroke-width:0.265;stroke-dasharray:none"
       id="rect1"
       width="135.27905"
       height="135.27905"
       x="0.20496826"
       y="0.20496826"
       ry="37.234222" /><text
       xml:space="preserve"
       style="font-style:normal;font-variant:normal;font-weight:600;font-stretch:normal;font-size:22.9306px;font-family:'Exo 2';-inkscape-font-specification:'Exo 2, Semi-Bold';font-variant-ligatures:normal;font-variant-caps:normal;font-variant-numeric:normal;font-variant-east-asian:normal;fill:#000000;stroke-width:0.264999;stroke-dasharray:none"
       x="12.446337"
       y="116.68677"
       id="text1"
       inkscape:label="text1"><tspan
         id="tspan1"
         style="font-style:normal;font-variant:normal;font-weight:600;font-stretch:normal;font-size:22.9306px;font-family:'Exo 2';-inkscape-font-specification:'Exo 2, Semi-Bold';font-variant-ligatures:normal;font-variant-caps:normal;font-variant-numeric:normal;font-variant-east-asian:normal;fill:#ffffff;fill-opacity:1;stroke-width:0.265"
         x="12.446337"
         y="116.68677"
         sodipodi:role="line">TEKTITE</tspan></text><text
       xml:space="preserve"
       style="font-style:normal;font-variant:normal;font-weight:normal;font-stretch:normal;font-size:22.9306px;font-family:'Noto Serif';-inkscape-font-specification:'Noto Serif, Normal';font-variant-ligatures:normal;font-variant-caps:normal;font-variant-numeric:normal;font-variant-east-asian:normal;fill:#ffffff;stroke-width:0.264999"
       x="99.217918"
       y="116.89174"
       id="text2"><tspan
         sodipodi:role="line"
         id="tspan2"
         style="font-style:normal;font-variant:normal;font-weight:normal;font-stretch:normal;font-size:22.9306px;font-family:'Noto Serif';-inkscape-font-specification:'Noto Serif, Normal';font-variant-ligatures:normal;font-variant-caps:normal;font-variant-numeric:normal;font-variant-east-asian:normal;stroke-width:0.265"
         x="99.217918"
         y="116.89174">-A</tspan></text><g
       style="fill:#ffffff;fill-opacity:1"
       id="g2"
       transform="matrix(5.3909578,0,0,5.3909578,25.927447,7.7032816)"><path
         d="m 12.17,9.53 c 2.307,-2.592 3.278,-4.684 3.641,-6.218 0.21,-0.887 0.214,-1.58 0.16,-2.065 A 3.6,3.6 0 0 0 15.863,0.684 2,2 0 0 0 15.785,0.454 V 0.453 C 15.712,0.289 15.617,0.219 15.433,0.158 A 2,2 0 0 0 15.273,0.113 4,4 0 0 0 14.703,0.02 c -0.49,-0.044 -1.19,-0.03 -2.08,0.188 C 11.087,0.582 9.005,1.551 6.462,3.812 L 4.062,4.05 H 4.056 A 2.55,2.55 0 0 0 2.532,4.784 L 0.15,7.17 A 0.512,0.512 0 0 0 0.583,8.038 L 2.479,7.767 c 0.28,-0.04 0.592,0.013 0.955,0.132 0.232,0.076 0.437,0.16 0.655,0.248 L 4.292,8.23 c 0.196,0.816 0.66,1.58 1.275,2.195 0.613,0.614 1.376,1.08 2.191,1.277 l 0.082,0.202 c 0.089,0.218 0.173,0.424 0.249,0.657 0.118,0.363 0.172,0.676 0.132,0.956 l -0.271,1.9 a 0.512,0.512 0 0 0 0.867,0.433 l 2.382,-2.386 c 0.41,-0.41 0.668,-0.949 0.732,-1.526 z m 0.11,-3.699 c -0.797,0.8 -1.93,0.961 -2.528,0.362 -0.598,-0.6 -0.436,-1.733 0.361,-2.532 0.798,-0.799 1.93,-0.96 2.528,-0.361 0.598,0.599 0.437,1.732 -0.36,2.531 z"
         id="path1"
         style="fill:#ffffff;fill-opacity:1" /><path
         d="m 5.205,10.787 a 7.6,7.6 0 0 0 1.804,1.352 C 5.891,13.146 2.08,14.167 1.955,14.042 1.829,13.915 2.692,9.853 3.794,8.862 c 0.346,0.69 0.837,1.35 1.411,1.925"
         id="path2"
         style="fill:#ffffff;fill-opacity:1" /></g></g></svg>
